<mxfile host="Electron" modified="2021-12-09T06:29:29.171Z" agent="5.0 (X11; Linux x86_64) AppleWebKit/537.36 (KHTML, like Gecko) draw.io/15.8.4 Chrome/91.0.4472.164 Electron/13.6.2 Safari/537.36" etag="Wno1wH1bCEyNrW1sQJbv" compressed="false" version="15.8.4" type="device">
  <diagram id="oHCXhDEkAE623AvZaujQ" name="Page-1">
    <mxGraphModel dx="276" dy="170" grid="1" gridSize="1.9685" guides="1" tooltips="1" connect="1" arrows="1" fold="1" page="1" pageScale="1" pageWidth="413" pageHeight="291" math="0" shadow="0">
      <root>
        <mxCell id="0" />
        <mxCell id="1" parent="0" />
        <mxCell id="xHBzkwErOteEwu96gMb--1" value="" style="rounded=0;whiteSpace=wrap;html=1;fillColor=#fff2cc;gradientDirection=radial;opacity=33;strokeColor=none;recursiveResize=0;expand=0;movable=0;resizable=1;rotatable=0;cloneable=0;deletable=0;allowArrows=0;connectable=0;" parent="1" vertex="1">
          <mxGeometry x="25.59" y="25.59" width="208.66" height="90.55" as="geometry" />
        </mxCell>
        <mxCell id="49kb1RIySOHTAMhGocwj-1" value="" style="group;allowArrows=0;dropTarget=0;recursiveResize=0;expand=0;movable=0;resizable=0;rotatable=0;cloneable=0;deletable=0;" parent="1" vertex="1" connectable="0">
          <mxGeometry x="31.498500000000007" y="70.8605" width="39.370000000000005" height="39.370000000000005" as="geometry" />
        </mxCell>
        <mxCell id="49kb1RIySOHTAMhGocwj-2" value="" style="group;allowArrows=0;dropTarget=0;recursiveResize=0;expand=0;movable=1;resizable=0;rotatable=0;cloneable=0;deletable=0;container=0;" parent="49kb1RIySOHTAMhGocwj-1" vertex="1" connectable="0">
          <mxGeometry width="39.36999999999999" height="39.370000000000005" as="geometry" />
        </mxCell>
        <mxCell id="49kb1RIySOHTAMhGocwj-3" value="" style="rounded=0;fontFamily=Helvetica;aspect=fixed;fillColor=none;strokeWidth=1.4;recursiveResize=0;expand=0;movable=0;resizable=0;rotatable=0;deletable=0;pointerEvents=0;allowArrows=0;connectable=0;" parent="49kb1RIySOHTAMhGocwj-1" vertex="1">
          <mxGeometry width="39.37" height="39.37" as="geometry" />
        </mxCell>
        <mxCell id="49kb1RIySOHTAMhGocwj-4" value="" style="group;strokeWidth=1.2;allowArrows=0;recursiveResize=0;expand=0;movable=0;resizable=0;rotatable=0;cloneable=0;deletable=0;container=0;" parent="49kb1RIySOHTAMhGocwj-1" vertex="1" connectable="0">
          <mxGeometry x="1.6899999999999977" y="1.6800000000000068" width="36" height="36" as="geometry" />
        </mxCell>
        <mxCell id="49kb1RIySOHTAMhGocwj-5" value="" style="group;allowArrows=0;dropTarget=0;recursiveResize=0;expand=0;movable=0;resizable=0;rotatable=0;cloneable=0;" parent="49kb1RIySOHTAMhGocwj-1" vertex="1" connectable="0">
          <mxGeometry x="0.12999999999999545" y="0.13800000000000523" width="39" height="39" as="geometry" />
        </mxCell>
        <mxCell id="49kb1RIySOHTAMhGocwj-6" value="" style="endArrow=none;html=1;rounded=0;fontFamily=Helvetica;strokeWidth=1.4;startFill=0;endFill=0;anchorPointDirection=0;bendable=0;movable=0;cloneable=0;deletable=0;" parent="49kb1RIySOHTAMhGocwj-5" edge="1">
          <mxGeometry width="50" height="50" relative="1" as="geometry">
            <mxPoint y="39" as="sourcePoint" />
            <mxPoint x="39" as="targetPoint" />
          </mxGeometry>
        </mxCell>
        <mxCell id="49kb1RIySOHTAMhGocwj-7" value="" style="endArrow=none;html=1;rounded=0;fontFamily=Helvetica;strokeWidth=1.4;deletable=0;cloneable=0;movable=0;bendable=0;anchorPointDirection=0;endFill=0;startFill=0;" parent="49kb1RIySOHTAMhGocwj-5" edge="1">
          <mxGeometry width="50" height="50" relative="1" as="geometry">
            <mxPoint as="sourcePoint" />
            <mxPoint x="39" y="39" as="targetPoint" />
          </mxGeometry>
        </mxCell>
        <mxCell id="o_Y75fhzQmK6db3aaqDm-2" value="" style="group;allowArrows=0;dropTarget=0;recursiveResize=0;expand=0;movable=0;resizable=0;rotatable=0;cloneable=0;deletable=0;" parent="1" vertex="1" connectable="0">
          <mxGeometry x="70.87" y="70.862" width="39.370000000000005" height="39.370000000000005" as="geometry" />
        </mxCell>
        <mxCell id="bYK6aVU1XNhnjMABFUIi-21" value="" style="group;allowArrows=0;dropTarget=0;recursiveResize=0;expand=0;movable=1;resizable=0;rotatable=0;cloneable=0;deletable=0;container=0;" parent="o_Y75fhzQmK6db3aaqDm-2" vertex="1" connectable="0">
          <mxGeometry width="39.36999999999999" height="39.370000000000005" as="geometry" />
        </mxCell>
        <mxCell id="Fg-nezp1GABccBey752c-1" value="" style="rounded=0;fontFamily=Helvetica;aspect=fixed;fillColor=none;strokeWidth=1.4;recursiveResize=0;expand=0;movable=0;resizable=0;rotatable=0;deletable=0;pointerEvents=0;allowArrows=0;connectable=0;" parent="o_Y75fhzQmK6db3aaqDm-2" vertex="1">
          <mxGeometry width="39.37" height="39.37" as="geometry" />
        </mxCell>
        <mxCell id="bYK6aVU1XNhnjMABFUIi-20" value="" style="group;strokeWidth=1.2;allowArrows=0;recursiveResize=0;expand=0;movable=0;resizable=0;rotatable=0;cloneable=0;deletable=0;container=0;" parent="o_Y75fhzQmK6db3aaqDm-2" vertex="1" connectable="0">
          <mxGeometry x="1.6899999999999977" y="1.6800000000000068" width="36" height="36" as="geometry" />
        </mxCell>
        <mxCell id="o_Y75fhzQmK6db3aaqDm-1" value="" style="group;allowArrows=0;dropTarget=0;recursiveResize=0;expand=0;movable=0;resizable=0;rotatable=0;cloneable=0;" parent="o_Y75fhzQmK6db3aaqDm-2" vertex="1" connectable="0">
          <mxGeometry x="0.12999999999999545" y="0.13800000000000523" width="39" height="39" as="geometry" />
        </mxCell>
        <mxCell id="bYK6aVU1XNhnjMABFUIi-18" value="" style="endArrow=none;html=1;rounded=0;fontFamily=Helvetica;strokeWidth=1.4;startFill=0;endFill=0;anchorPointDirection=0;bendable=0;movable=0;cloneable=0;deletable=0;" parent="o_Y75fhzQmK6db3aaqDm-1" edge="1">
          <mxGeometry width="50" height="50" relative="1" as="geometry">
            <mxPoint y="39" as="sourcePoint" />
            <mxPoint x="39" as="targetPoint" />
          </mxGeometry>
        </mxCell>
        <mxCell id="bYK6aVU1XNhnjMABFUIi-19" value="" style="endArrow=none;html=1;rounded=0;fontFamily=Helvetica;strokeWidth=1.4;deletable=0;cloneable=0;movable=0;bendable=0;anchorPointDirection=0;endFill=0;startFill=0;" parent="o_Y75fhzQmK6db3aaqDm-1" edge="1">
          <mxGeometry width="50" height="50" relative="1" as="geometry">
            <mxPoint as="sourcePoint" />
            <mxPoint x="39" y="39" as="targetPoint" />
          </mxGeometry>
        </mxCell>
        <mxCell id="49kb1RIySOHTAMhGocwj-8" value="" style="group;allowArrows=0;dropTarget=0;recursiveResize=0;expand=0;movable=0;resizable=0;rotatable=0;cloneable=0;deletable=0;" parent="1" vertex="1" connectable="0">
          <mxGeometry x="110.23850000000002" y="70.8605" width="39.370000000000005" height="39.370000000000005" as="geometry" />
        </mxCell>
        <mxCell id="49kb1RIySOHTAMhGocwj-9" value="" style="group;allowArrows=0;dropTarget=0;recursiveResize=0;expand=0;movable=1;resizable=0;rotatable=0;cloneable=0;deletable=0;container=0;" parent="49kb1RIySOHTAMhGocwj-8" vertex="1" connectable="0">
          <mxGeometry width="39.36999999999999" height="39.370000000000005" as="geometry" />
        </mxCell>
        <mxCell id="49kb1RIySOHTAMhGocwj-10" value="" style="rounded=0;fontFamily=Helvetica;aspect=fixed;fillColor=none;strokeWidth=1.4;recursiveResize=0;expand=0;movable=0;resizable=0;rotatable=0;deletable=0;pointerEvents=0;allowArrows=0;connectable=0;" parent="49kb1RIySOHTAMhGocwj-8" vertex="1">
          <mxGeometry width="39.37" height="39.37" as="geometry" />
        </mxCell>
        <mxCell id="49kb1RIySOHTAMhGocwj-11" value="" style="group;strokeWidth=1.2;allowArrows=0;recursiveResize=0;expand=0;movable=0;resizable=0;rotatable=0;cloneable=0;deletable=0;container=0;" parent="49kb1RIySOHTAMhGocwj-8" vertex="1" connectable="0">
          <mxGeometry x="1.6899999999999977" y="1.6800000000000068" width="36" height="36" as="geometry" />
        </mxCell>
        <mxCell id="49kb1RIySOHTAMhGocwj-12" value="" style="group;allowArrows=0;dropTarget=0;recursiveResize=0;expand=0;movable=0;resizable=0;rotatable=0;cloneable=0;" parent="49kb1RIySOHTAMhGocwj-8" vertex="1" connectable="0">
          <mxGeometry x="0.12999999999999545" y="0.13800000000000523" width="39" height="39" as="geometry" />
        </mxCell>
        <mxCell id="49kb1RIySOHTAMhGocwj-13" value="" style="endArrow=none;html=1;rounded=0;fontFamily=Helvetica;strokeWidth=1.4;startFill=0;endFill=0;anchorPointDirection=0;bendable=0;movable=0;cloneable=0;deletable=0;" parent="49kb1RIySOHTAMhGocwj-12" edge="1">
          <mxGeometry width="50" height="50" relative="1" as="geometry">
            <mxPoint y="39" as="sourcePoint" />
            <mxPoint x="39" as="targetPoint" />
          </mxGeometry>
        </mxCell>
        <mxCell id="49kb1RIySOHTAMhGocwj-14" value="" style="endArrow=none;html=1;rounded=0;fontFamily=Helvetica;strokeWidth=1.4;deletable=0;cloneable=0;movable=0;bendable=0;anchorPointDirection=0;endFill=0;startFill=0;" parent="49kb1RIySOHTAMhGocwj-12" edge="1">
          <mxGeometry width="50" height="50" relative="1" as="geometry">
            <mxPoint as="sourcePoint" />
            <mxPoint x="39" y="39" as="targetPoint" />
          </mxGeometry>
        </mxCell>
        <mxCell id="49kb1RIySOHTAMhGocwj-15" value="" style="group;allowArrows=0;dropTarget=0;recursiveResize=0;expand=0;movable=0;resizable=0;rotatable=0;cloneable=0;deletable=0;" parent="1" vertex="1" connectable="0">
          <mxGeometry x="149.60700000000003" y="70.85900000000001" width="39.370000000000005" height="39.370000000000005" as="geometry" />
        </mxCell>
        <mxCell id="49kb1RIySOHTAMhGocwj-16" value="" style="group;allowArrows=0;dropTarget=0;recursiveResize=0;expand=0;movable=1;resizable=0;rotatable=0;cloneable=0;deletable=0;container=0;" parent="49kb1RIySOHTAMhGocwj-15" vertex="1" connectable="0">
          <mxGeometry width="39.36999999999999" height="39.370000000000005" as="geometry" />
        </mxCell>
        <mxCell id="49kb1RIySOHTAMhGocwj-17" value="" style="rounded=0;fontFamily=Helvetica;aspect=fixed;fillColor=none;strokeWidth=1.4;recursiveResize=0;expand=0;movable=0;resizable=0;rotatable=0;deletable=0;pointerEvents=0;allowArrows=0;connectable=0;" parent="49kb1RIySOHTAMhGocwj-15" vertex="1">
          <mxGeometry width="39.37" height="39.37" as="geometry" />
        </mxCell>
        <mxCell id="49kb1RIySOHTAMhGocwj-18" value="" style="group;strokeWidth=1.2;allowArrows=0;recursiveResize=0;expand=0;movable=0;resizable=0;rotatable=0;cloneable=0;deletable=0;container=0;" parent="49kb1RIySOHTAMhGocwj-15" vertex="1" connectable="0">
          <mxGeometry x="1.6899999999999977" y="1.6800000000000068" width="36" height="36" as="geometry" />
        </mxCell>
        <mxCell id="49kb1RIySOHTAMhGocwj-19" value="" style="group;allowArrows=0;dropTarget=0;recursiveResize=0;expand=0;movable=0;resizable=0;rotatable=0;cloneable=0;" parent="49kb1RIySOHTAMhGocwj-15" vertex="1" connectable="0">
          <mxGeometry x="0.12999999999999545" y="0.13800000000000523" width="39" height="39" as="geometry" />
        </mxCell>
        <mxCell id="49kb1RIySOHTAMhGocwj-20" value="" style="endArrow=none;html=1;rounded=0;fontFamily=Helvetica;strokeWidth=1.4;startFill=0;endFill=0;anchorPointDirection=0;bendable=0;movable=0;cloneable=0;deletable=0;" parent="49kb1RIySOHTAMhGocwj-19" edge="1">
          <mxGeometry width="50" height="50" relative="1" as="geometry">
            <mxPoint y="39" as="sourcePoint" />
            <mxPoint x="39" as="targetPoint" />
          </mxGeometry>
        </mxCell>
        <mxCell id="49kb1RIySOHTAMhGocwj-21" value="" style="endArrow=none;html=1;rounded=0;fontFamily=Helvetica;strokeWidth=1.4;deletable=0;cloneable=0;movable=0;bendable=0;anchorPointDirection=0;endFill=0;startFill=0;" parent="49kb1RIySOHTAMhGocwj-19" edge="1">
          <mxGeometry width="50" height="50" relative="1" as="geometry">
            <mxPoint as="sourcePoint" />
            <mxPoint x="39" y="39" as="targetPoint" />
          </mxGeometry>
        </mxCell>
        <mxCell id="49kb1RIySOHTAMhGocwj-22" value="" style="group;allowArrows=0;dropTarget=0;recursiveResize=0;expand=0;movable=0;resizable=0;rotatable=0;cloneable=0;deletable=0;" parent="1" vertex="1" connectable="0">
          <mxGeometry x="188.97550000000004" y="70.85750000000002" width="39.370000000000005" height="39.370000000000005" as="geometry" />
        </mxCell>
        <mxCell id="49kb1RIySOHTAMhGocwj-23" value="" style="group;allowArrows=0;dropTarget=0;recursiveResize=0;expand=0;movable=1;resizable=0;rotatable=0;cloneable=0;deletable=0;container=0;" parent="49kb1RIySOHTAMhGocwj-22" vertex="1" connectable="0">
          <mxGeometry width="39.36999999999999" height="39.370000000000005" as="geometry" />
        </mxCell>
        <mxCell id="49kb1RIySOHTAMhGocwj-24" value="" style="rounded=0;fontFamily=Helvetica;aspect=fixed;fillColor=none;strokeWidth=1.4;recursiveResize=0;expand=0;movable=0;resizable=0;rotatable=0;deletable=0;pointerEvents=0;allowArrows=0;connectable=0;" parent="49kb1RIySOHTAMhGocwj-22" vertex="1">
          <mxGeometry width="39.37" height="39.37" as="geometry" />
        </mxCell>
        <mxCell id="49kb1RIySOHTAMhGocwj-25" value="" style="group;strokeWidth=1.2;allowArrows=0;recursiveResize=0;expand=0;movable=0;resizable=0;rotatable=0;cloneable=0;deletable=0;container=0;" parent="49kb1RIySOHTAMhGocwj-22" vertex="1" connectable="0">
          <mxGeometry x="1.6899999999999977" y="1.6800000000000068" width="36" height="36" as="geometry" />
        </mxCell>
        <mxCell id="49kb1RIySOHTAMhGocwj-26" value="" style="group;allowArrows=0;dropTarget=0;recursiveResize=0;expand=0;movable=0;resizable=0;rotatable=0;cloneable=0;" parent="49kb1RIySOHTAMhGocwj-22" vertex="1" connectable="0">
          <mxGeometry x="0.12999999999999545" y="0.13800000000000523" width="39" height="39" as="geometry" />
        </mxCell>
        <mxCell id="49kb1RIySOHTAMhGocwj-27" value="" style="endArrow=none;html=1;rounded=0;fontFamily=Helvetica;strokeWidth=1.4;startFill=0;endFill=0;anchorPointDirection=0;bendable=0;movable=0;cloneable=0;deletable=0;" parent="49kb1RIySOHTAMhGocwj-26" edge="1">
          <mxGeometry width="50" height="50" relative="1" as="geometry">
            <mxPoint y="39" as="sourcePoint" />
            <mxPoint x="39" as="targetPoint" />
          </mxGeometry>
        </mxCell>
        <mxCell id="49kb1RIySOHTAMhGocwj-28" value="" style="endArrow=none;html=1;rounded=0;fontFamily=Helvetica;strokeWidth=1.4;deletable=0;cloneable=0;movable=0;bendable=0;anchorPointDirection=0;endFill=0;startFill=0;" parent="49kb1RIySOHTAMhGocwj-26" edge="1">
          <mxGeometry width="50" height="50" relative="1" as="geometry">
            <mxPoint as="sourcePoint" />
            <mxPoint x="39" y="39" as="targetPoint" />
          </mxGeometry>
        </mxCell>
        <mxCell id="9jD3Vu1NzvTs36WoyOkC-2" value="" style="endArrow=none;html=1;strokeWidth=4;startArrow=none;startFill=0;endFill=0;endSize=6;startSize=6;sourcePerimeterSpacing=0;jumpSize=8;anchorPointDirection=0;bendable=1;movable=1;cloneable=0;deletable=0;rounded=0;" parent="1" edge="1">
          <mxGeometry width="50" height="50" relative="1" as="geometry">
            <mxPoint x="61" y="100" as="sourcePoint" />
            <mxPoint x="61" y="81" as="targetPoint" />
            <Array as="points">
              <mxPoint x="41" y="100" />
            </Array>
          </mxGeometry>
        </mxCell>
        <mxCell id="3Q5Fzaz5UXnS8k2w01hA-1" value="" style="whiteSpace=wrap;html=1;aspect=fixed;strokeWidth=4;fillColor=none;pointerEvents=0;deletable=0;cloneable=0;rotatable=0;resizable=0;movable=0;expand=0;recursiveResize=0;allowArrows=0;connectable=0;" vertex="1" parent="1">
          <mxGeometry x="80.71" y="80.7" width="19.69" height="19.69" as="geometry" />
        </mxCell>
        <mxCell id="3Q5Fzaz5UXnS8k2w01hA-3" value="" style="shape=image;image=data:image/svg+xml,PD94bWwgdmVyc2lvbj0iMS4wIiBzdGFuZGFsb25lPSJubyI/Pgo8IURPQ1RZUEUgc3ZnIFBVQkxJQyAiLS8vVzNDLy9EVEQgU1ZHIDEuMS8vRU4iICJodHRwOi8vd3d3LnczLm9yZy9HcmFwaGljcy9TVkcvMS4xL0RURC9zdmcxMS5kdGQiID4KPHN2ZyB4bWxucz0iaHR0cDovL3d3dy53My5vcmcvMjAwMC9zdmciIHhtbG5zOnhsaW5rPSJodHRwOi8vd3d3LnczLm9yZy8xOTk5L3hsaW5rIiB2ZXJzaW9uPSIxLjEiIHZpZXdCb3g9Ii0xMSAwIDQ2MyAxMDAwIj4KICA8ZyB0cmFuc2Zvcm09Im1hdHJpeCgxIDAgMCAtMSAwIDgwMCkiPgogICA8cGF0aCBmaWxsPSJjdXJyZW50Q29sb3IiCmQ9Ik0zNiAxNjRxMCAxIDAuNSAxdDAuNSAxbDEyMiA0NTN2MXYxcTUgMTAgNy41IDEwLjV0NS41IDIuNWwxIDFxMiAxIDcgMWgycTExIDAgMTQuNSAtNS41dDUuNSAtOS41bDEgLTF2LTFsMTIyIC00NTN2LTJsMzcgLTEzNXEwIC0yIDAuNSAtM3QwLjUgLTNxMCAtMTAgLTYuNSAtMTYuNXQtMTYuNSAtNi41cS04IDAgLTE0IDR0LTggMTJsLTMyIDExOWgtMjEwbC0zMiAtMTE5cS0zIC04IC05LjUgLTEyLjV0LTE0LjUgLTQuNXEtMTAgMCAtMTUuNSA3CnQtNS41IDE2djV6TTg3IDE4MGgxODVsLTkyIDM0NHoiIC8+CiAgPC9nPgoKPC9zdmc+Cg==;imageAspect=0;connectable=0;allowArrows=0;recursiveResize=0;expand=0;movable=0;resizable=0;rotatable=0;cloneable=0;deletable=0;" vertex="1" parent="1">
          <mxGeometry x="192.32245" y="70.866" width="39.37" height="39.38" as="geometry" />
        </mxCell>
      </root>
    </mxGraphModel>
  </diagram>
</mxfile>
